<?xml version="1.0" standalone="no"?>
<!DOCTYPE svg PUBLIC "-//W3C//DTD SVG 20010904//EN"
 "http://www.w3.org/TR/2001/REC-SVG-20010904/DTD/svg10.dtd">
<svg version="1.0" xmlns="http://www.w3.org/2000/svg"
 width="700.000000pt" height="700.000000pt" viewBox="0 0 700.000000 700.000000"
 preserveAspectRatio="xMidYMid meet">
<metadata>
Created by potrace 1.14, written by Peter Selinger 2001-2017
</metadata>
<g transform="translate(0.000000,700.000000) scale(0.100000,-0.100000)"
fill="#000000" stroke="none">
<path d="M4055 5913 c-99 -2 -653 -9 -1231 -17 -712 -10 -1060 -19 -1080 -26
-16 -6 -40 -21 -53 -33 -13 -12 -194 -234 -402 -494 -273 -341 -380 -481 -384
-505 -9 -48 19 -113 60 -138 47 -29 115 -27 153 5 17 14 189 223 382 465 l352
440 86 0 c48 0 526 7 1062 15 536 8 1083 15 1216 15 l241 0 446 -470 c246
-258 447 -474 447 -479 0 -16 -881 -2705 -889 -2714 -4 -4 -147 -25 -317 -47
-573 -73 -2548 -321 -2681 -337 l-132 -16 -135 58 c-93 40 -136 63 -136 74 0
26 99 573 105 579 2 3 436 33 962 68 1034 68 1001 64 1045 124 28 39 33 91 12
135 -24 52 -66 75 -134 75 -30 0 -455 -27 -944 -60 -490 -33 -891 -58 -893
-57 -1 2 20 129 47 283 28 153 51 302 51 330 1 57 -16 96 -58 135 -46 43 -72
51 -176 58 l-99 6 118 128 117 127 235 0 c232 0 236 0 277 25 53 31 68 53 125
195 l46 115 261 3 261 2 18 -47 c82 -224 91 -241 155 -273 35 -18 59 -20 270
-20 217 0 236 1 277 21 57 28 83 70 128 211 35 113 38 118 68 123 17 3 334 48
705 100 630 88 675 96 706 120 61 46 70 134 19 194 -49 58 -29 60 -841 -54
-437 -62 -755 -111 -772 -120 -51 -26 -78 -71 -121 -200 l-42 -125 -126 0
-127 0 -44 121 c-47 130 -73 169 -132 199 -36 19 -61 20 -399 20 -280 0 -368
-3 -393 -14 -54 -22 -91 -76 -142 -205 l-49 -121 -127 0 -128 0 -81 136 c-46
75 -87 133 -94 131 -6 -3 -59 -33 -118 -69 l-106 -64 58 -95 58 -96 -195 -209
c-242 -260 -248 -269 -248 -349 0 -50 5 -69 28 -103 46 -70 88 -85 255 -90
118 -4 142 -7 142 -19 0 -8 -57 -336 -126 -728 -140 -794 -137 -758 -69 -834
28 -31 72 -54 236 -125 110 -48 215 -90 232 -93 33 -5 3182 388 3272 409 37 8
61 22 91 52 37 37 47 58 97 211 30 94 241 737 468 1430 307 938 412 1273 413
1310 1 32 -6 63 -19 87 -11 21 -251 281 -533 578 l-513 540 -167 -2 c-92 -1
-248 -4 -347 -5z"/>
</g>
</svg>
